<svg xmlns="http://www.w3.org/2000/svg" xmlns:xlink="http://www.w3.org/1999/xlink" width="120" zoomAndPan="magnify" viewBox="0 0 90 30.000001" height="40" preserveAspectRatio="xMidYMid meet" version="1.0"><defs><g/><clipPath id="1afa1b4933"><path d="M 2.902344 5.488281 L 17.417969 5.488281 L 17.417969 25.808594 L 2.902344 25.808594 Z M 2.902344 5.488281 " clip-rule="nonzero"/></clipPath></defs><g fill="#2b2b2b" fill-opacity="1"><g transform="translate(20.49278, 21.607397)"><g><path d="M 3.234375 -6.65625 C 3.453125 -7.019531 3.769531 -7.3125 4.1875 -7.53125 C 4.601562 -7.75 5.082031 -7.859375 5.625 -7.859375 C 6.257812 -7.859375 6.835938 -7.695312 7.359375 -7.375 C 7.878906 -7.050781 8.289062 -6.585938 8.59375 -5.984375 C 8.894531 -5.378906 9.046875 -4.679688 9.046875 -3.890625 C 9.046875 -3.085938 8.894531 -2.382812 8.59375 -1.78125 C 8.289062 -1.175781 7.878906 -0.707031 7.359375 -0.375 C 6.835938 -0.0507812 6.257812 0.109375 5.625 0.109375 C 5.082031 0.109375 4.601562 0 4.1875 -0.21875 C 3.78125 -0.4375 3.460938 -0.722656 3.234375 -1.078125 L 3.234375 0 L 0.859375 0 L 0.859375 -10.28125 L 3.234375 -10.28125 Z M 6.625 -3.890625 C 6.625 -4.484375 6.457031 -4.945312 6.125 -5.28125 C 5.800781 -5.625 5.398438 -5.796875 4.921875 -5.796875 C 4.441406 -5.796875 4.035156 -5.625 3.703125 -5.28125 C 3.378906 -4.9375 3.21875 -4.46875 3.21875 -3.875 C 3.21875 -3.28125 3.378906 -2.8125 3.703125 -2.46875 C 4.035156 -2.125 4.441406 -1.953125 4.921875 -1.953125 C 5.390625 -1.953125 5.789062 -2.125 6.125 -2.46875 C 6.457031 -2.820312 6.625 -3.296875 6.625 -3.890625 Z M 6.625 -3.890625 "/></g></g></g><g fill="#2b2b2b" fill-opacity="1"><g transform="translate(30.427648, 21.607397)"><g><path d="M 8.171875 -4 C 8.171875 -3.78125 8.15625 -3.550781 8.125 -3.3125 L 2.75 -3.3125 C 2.789062 -2.820312 2.945312 -2.445312 3.21875 -2.1875 C 3.488281 -1.9375 3.820312 -1.8125 4.21875 -1.8125 C 4.8125 -1.8125 5.222656 -2.0625 5.453125 -2.5625 L 7.984375 -2.5625 C 7.859375 -2.0625 7.625 -1.601562 7.28125 -1.1875 C 6.945312 -0.78125 6.523438 -0.460938 6.015625 -0.234375 C 5.503906 -0.00390625 4.9375 0.109375 4.3125 0.109375 C 3.550781 0.109375 2.875 -0.0507812 2.28125 -0.375 C 1.6875 -0.695312 1.222656 -1.160156 0.890625 -1.765625 C 0.554688 -2.367188 0.390625 -3.070312 0.390625 -3.875 C 0.390625 -4.675781 0.550781 -5.378906 0.875 -5.984375 C 1.207031 -6.585938 1.671875 -7.050781 2.265625 -7.375 C 2.859375 -7.695312 3.539062 -7.859375 4.3125 -7.859375 C 5.0625 -7.859375 5.726562 -7.703125 6.3125 -7.390625 C 6.894531 -7.078125 7.347656 -6.628906 7.671875 -6.046875 C 8.003906 -5.460938 8.171875 -4.78125 8.171875 -4 Z M 5.734375 -4.625 C 5.734375 -5.03125 5.59375 -5.351562 5.3125 -5.59375 C 5.039062 -5.832031 4.695312 -5.953125 4.28125 -5.953125 C 3.882812 -5.953125 3.546875 -5.835938 3.265625 -5.609375 C 2.992188 -5.378906 2.828125 -5.050781 2.765625 -4.625 Z M 5.734375 -4.625 "/></g></g></g><g fill="#2b2b2b" fill-opacity="1"><g transform="translate(39.487168, 21.607397)"><g><path d="M 3.8125 -7.859375 C 4.351562 -7.859375 4.828125 -7.75 5.234375 -7.53125 C 5.648438 -7.3125 5.96875 -7.019531 6.1875 -6.65625 L 6.1875 -7.75 L 8.578125 -7.75 L 8.578125 -0.015625 C 8.578125 0.703125 8.429688 1.347656 8.140625 1.921875 C 7.859375 2.503906 7.425781 2.960938 6.84375 3.296875 C 6.269531 3.640625 5.550781 3.8125 4.6875 3.8125 C 3.539062 3.8125 2.609375 3.539062 1.890625 3 C 1.179688 2.457031 0.78125 1.726562 0.6875 0.8125 L 3.03125 0.8125 C 3.101562 1.101562 3.273438 1.332031 3.546875 1.5 C 3.828125 1.675781 4.171875 1.765625 4.578125 1.765625 C 5.066406 1.765625 5.457031 1.625 5.75 1.34375 C 6.039062 1.0625 6.1875 0.609375 6.1875 -0.015625 L 6.1875 -1.109375 C 5.957031 -0.742188 5.640625 -0.445312 5.234375 -0.21875 C 4.828125 0 4.351562 0.109375 3.8125 0.109375 C 3.164062 0.109375 2.582031 -0.0507812 2.0625 -0.375 C 1.550781 -0.707031 1.144531 -1.175781 0.84375 -1.78125 C 0.539062 -2.382812 0.390625 -3.085938 0.390625 -3.890625 C 0.390625 -4.679688 0.539062 -5.378906 0.84375 -5.984375 C 1.144531 -6.585938 1.550781 -7.050781 2.0625 -7.375 C 2.582031 -7.695312 3.164062 -7.859375 3.8125 -7.859375 Z M 6.1875 -3.875 C 6.1875 -4.46875 6.019531 -4.9375 5.6875 -5.28125 C 5.363281 -5.625 4.96875 -5.796875 4.5 -5.796875 C 4.03125 -5.796875 3.628906 -5.625 3.296875 -5.28125 C 2.972656 -4.945312 2.8125 -4.484375 2.8125 -3.890625 C 2.8125 -3.296875 2.972656 -2.820312 3.296875 -2.46875 C 3.628906 -2.125 4.03125 -1.953125 4.5 -1.953125 C 4.96875 -1.953125 5.363281 -2.125 5.6875 -2.46875 C 6.019531 -2.8125 6.1875 -3.28125 6.1875 -3.875 Z M 6.1875 -3.875 "/></g></g></g><g fill="#2b2b2b" fill-opacity="1"><g transform="translate(49.422036, 21.607397)"><g><path d="M 2.0625 -8.5625 C 1.644531 -8.5625 1.300781 -8.679688 1.03125 -8.921875 C 0.769531 -9.171875 0.640625 -9.472656 0.640625 -9.828125 C 0.640625 -10.203125 0.769531 -10.507812 1.03125 -10.75 C 1.300781 -11 1.644531 -11.125 2.0625 -11.125 C 2.46875 -11.125 2.800781 -11 3.0625 -10.75 C 3.320312 -10.507812 3.453125 -10.203125 3.453125 -9.828125 C 3.453125 -9.472656 3.320312 -9.171875 3.0625 -8.921875 C 2.800781 -8.679688 2.46875 -8.5625 2.0625 -8.5625 Z M 3.234375 -7.75 L 3.234375 0 L 0.859375 0 L 0.859375 -7.75 Z M 3.234375 -7.75 "/></g></g></g><g fill="#2b2b2b" fill-opacity="1"><g transform="translate(54.021405, 21.607397)"><g><path d="M 5.578125 -7.828125 C 6.492188 -7.828125 7.222656 -7.53125 7.765625 -6.9375 C 8.304688 -6.351562 8.578125 -5.550781 8.578125 -4.53125 L 8.578125 0 L 6.203125 0 L 6.203125 -4.203125 C 6.203125 -4.722656 6.066406 -5.125 5.796875 -5.40625 C 5.535156 -5.695312 5.175781 -5.84375 4.71875 -5.84375 C 4.269531 -5.84375 3.910156 -5.695312 3.640625 -5.40625 C 3.367188 -5.125 3.234375 -4.722656 3.234375 -4.203125 L 3.234375 0 L 0.859375 0 L 0.859375 -7.75 L 3.234375 -7.75 L 3.234375 -6.71875 C 3.472656 -7.0625 3.796875 -7.332031 4.203125 -7.53125 C 4.609375 -7.726562 5.066406 -7.828125 5.578125 -7.828125 Z M 5.578125 -7.828125 "/></g></g></g><g fill="#2b2b2b" fill-opacity="1"><g transform="translate(63.895786, 21.607397)"><g><path d="M 0.59375 -3.828125 C 0.59375 -4.609375 0.75 -5.289062 1.0625 -5.875 C 1.382812 -6.46875 1.816406 -6.925781 2.359375 -7.25 C 2.910156 -7.570312 3.53125 -7.734375 4.21875 -7.734375 C 4.8125 -7.734375 5.363281 -7.597656 5.875 -7.328125 C 6.382812 -7.054688 6.773438 -6.695312 7.046875 -6.25 L 7.046875 -10.28125 L 8.328125 -10.28125 L 8.328125 0 L 7.046875 0 L 7.046875 -1.4375 C 6.796875 -0.976562 6.421875 -0.601562 5.921875 -0.3125 C 5.429688 -0.0195312 4.859375 0.125 4.203125 0.125 C 3.523438 0.125 2.910156 -0.0390625 2.359375 -0.375 C 1.816406 -0.707031 1.382812 -1.175781 1.0625 -1.78125 C 0.75 -2.382812 0.59375 -3.066406 0.59375 -3.828125 Z M 7.046875 -3.8125 C 7.046875 -4.394531 6.925781 -4.894531 6.6875 -5.3125 C 6.457031 -5.738281 6.144531 -6.066406 5.75 -6.296875 C 5.363281 -6.523438 4.929688 -6.640625 4.453125 -6.640625 C 3.984375 -6.640625 3.550781 -6.523438 3.15625 -6.296875 C 2.769531 -6.078125 2.460938 -5.753906 2.234375 -5.328125 C 2.003906 -4.898438 1.890625 -4.398438 1.890625 -3.828125 C 1.890625 -3.242188 2.003906 -2.738281 2.234375 -2.3125 C 2.460938 -1.882812 2.769531 -1.554688 3.15625 -1.328125 C 3.550781 -1.097656 3.984375 -0.984375 4.453125 -0.984375 C 4.929688 -0.984375 5.363281 -1.097656 5.75 -1.328125 C 6.144531 -1.554688 6.457031 -1.882812 6.6875 -2.3125 C 6.925781 -2.738281 7.046875 -3.238281 7.046875 -3.8125 Z M 7.046875 -3.8125 "/></g></g></g><g fill="#2b2b2b" fill-opacity="1"><g transform="translate(73.788969, 21.607397)"><g><path d="M 4.390625 0.125 C 3.671875 0.125 3.019531 -0.0351562 2.4375 -0.359375 C 1.863281 -0.679688 1.410156 -1.140625 1.078125 -1.734375 C 0.753906 -2.335938 0.59375 -3.03125 0.59375 -3.8125 C 0.59375 -4.59375 0.757812 -5.28125 1.09375 -5.875 C 1.4375 -6.476562 1.898438 -6.9375 2.484375 -7.25 C 3.066406 -7.570312 3.71875 -7.734375 4.4375 -7.734375 C 5.164062 -7.734375 5.820312 -7.570312 6.40625 -7.25 C 6.988281 -6.9375 7.445312 -6.484375 7.78125 -5.890625 C 8.125 -5.296875 8.296875 -4.601562 8.296875 -3.8125 C 8.296875 -3.03125 8.117188 -2.335938 7.765625 -1.734375 C 7.421875 -1.140625 6.953125 -0.679688 6.359375 -0.359375 C 5.765625 -0.0351562 5.109375 0.125 4.390625 0.125 Z M 4.390625 -0.984375 C 4.835938 -0.984375 5.257812 -1.085938 5.65625 -1.296875 C 6.0625 -1.515625 6.382812 -1.835938 6.625 -2.265625 C 6.875 -2.691406 7 -3.207031 7 -3.8125 C 7 -4.425781 6.878906 -4.945312 6.640625 -5.375 C 6.398438 -5.800781 6.082031 -6.117188 5.6875 -6.328125 C 5.300781 -6.535156 4.882812 -6.640625 4.4375 -6.640625 C 3.96875 -6.640625 3.539062 -6.535156 3.15625 -6.328125 C 2.769531 -6.117188 2.460938 -5.800781 2.234375 -5.375 C 2.003906 -4.945312 1.890625 -4.425781 1.890625 -3.8125 C 1.890625 -3.195312 2 -2.675781 2.21875 -2.25 C 2.445312 -1.820312 2.75 -1.503906 3.125 -1.296875 C 3.507812 -1.085938 3.929688 -0.984375 4.390625 -0.984375 Z M 4.390625 -0.984375 "/></g></g></g><g fill="#2b2b2b" fill-opacity="1"><g transform="translate(83.181952, 21.607397)"><g><path d="M 2.609375 -6.578125 L 2.609375 -2.078125 C 2.609375 -1.710938 2.6875 -1.453125 2.84375 -1.296875 C 3 -1.140625 3.273438 -1.0625 3.671875 -1.0625 L 4.59375 -1.0625 L 4.59375 0 L 3.453125 0 C 2.753906 0 2.226562 -0.160156 1.875 -0.484375 C 1.519531 -0.804688 1.34375 -1.335938 1.34375 -2.078125 L 1.34375 -6.578125 L 0.359375 -6.578125 L 0.359375 -7.609375 L 1.34375 -7.609375 L 1.34375 -9.53125 L 2.609375 -9.53125 L 2.609375 -7.609375 L 4.59375 -7.609375 L 4.59375 -6.578125 Z M 2.609375 -6.578125 "/></g></g></g><g clip-path="url(#1afa1b4933)"><path fill="#b83025" d="M 12.285156 21.675781 L 14.804688 23.101562 L 12.285156 24.527344 L 10.085938 25.769531 L 10.027344 25.804688 L 7.886719 24.59375 L 2.902344 21.773438 L 2.902344 8.3125 L 5.25 6.988281 L 7.886719 5.492188 L 7.886719 19.1875 L 10.085938 20.429688 Z M 12.285156 10.96875 L 10.085938 9.726562 L 10.085938 15.359375 L 12.285156 16.605469 L 12.285156 19.140625 L 17.042969 21.832031 L 17.417969 22.046875 L 17.417969 13.875 Z M 12.285156 10.96875 " fill-opacity="1" fill-rule="nonzero"/></g></svg>